<svg xmlns="http://www.w3.org/2000/svg" xmlns:xlink="http://www.w3.org/1999/xlink" id="Layer_1" x="0px" y="0px" viewBox="0 0 975 904" style="enable-background:new 0 0 975 904;" xml:space="preserve"> <style type="text/css"> .st0{clip-path:url(#SVGID_2_);} .st1{opacity:0.12;fill:url(#SVGID_3_);enable-background:new ;} .st2{opacity:0.1;clip-path:url(#SVGID_5_);} .st3{fill:url(#SVGID_6_);} .st4{fill:#5B24B2;} .st5{clip-path:url(#SVGID_8_);} .st6{fill:#FFFFFF;} </style> <g> <defs> <rect id="SVGID_1_" x="208.5" y="0" width="766.5" height="904"></rect> </defs> <clipPath id="SVGID_2_"> <use xlink:href="#SVGID_1_" style="overflow:visible;"></use> </clipPath> <g class="st0"> <linearGradient id="SVGID_3_" gradientUnits="userSpaceOnUse" x1="591.76" y1="-2.1072" x2="591.76" y2="901.8925" gradientTransform="matrix(1 0 0 -1 0 901.8898)"> <stop offset="1.302080e-03" style="stop-color:#1AE4FF"></stop> <stop offset="1" style="stop-color:#1663FE"></stop> </linearGradient> <path class="st1" d="M975,904c-38.9-18.4-73.2-44.3-99.4-75.5c-46.5-55.1-67.3-126.5-57-194.5c7.6-50.5,31.3-97.7,43-147.6 c11.6-49.8,9.2-106.8-28.9-144.7c-24.6-24.7-60.8-37.8-96.5-46.9c-109.7-28.5-229.6-28.3-332.3-73.1 C305.5,178.7,232.3,94.4,208.5,0L975,0V904z"></path> </g> </g> <g> <defs> <rect id="SVGID_4_" y="0" width="975" height="830"></rect> </defs> <clipPath id="SVGID_5_"> <use xlink:href="#SVGID_4_" style="overflow:visible;"></use> </clipPath> <g class="st2"> <linearGradient id="SVGID_6_" gradientUnits="userSpaceOnUse" x1="487.3135" y1="707.8809" x2="487.3135" y2="901.8701" gradientTransform="matrix(1 0 0 -1 0 901.8898)"> <stop offset="1.302080e-03" style="stop-color:#FF2574"></stop> <stop offset="0.9987" style="stop-color:#FFA35A"></stop> </linearGradient> <path class="st3" d="M42.5,40.1c60.8,44,147.8,67.9,251.1,69.2c61.6,0.7,123.9-6,184.3-12.6c26.9-3,54.9-6,82.1-8.3 c75.7-6.3,174.3-9.9,263.8,20.2c50.7,16.9,100.4,45,150.7,85.4v-1.3c-50.4-40.4-99.6-68.2-150.4-85.1 c-89.9-30.1-188.4-26.5-264.6-20.2c-27.2,2.3-55.2,5.3-82.1,8.3c-60.1,6.6-122.4,13.2-184.3,12.6c-103-1.3-189.6-25.2-250.4-68.9 C27.2,28.1,13.1,14.9,1.1,0.3H0C12.3,14.9,26.9,28.5,42.5,40.1z"></path> <path class="st4" d="M424.3,29.5c30.2,39.4,70.9,71.2,116.8,92c34.7,15.6,72.8,25.5,109.7,35.1c16.8,4.3,34,8.9,50.7,13.9 c67.9,20.2,112.3,45.7,139.9,80.4c44.4,56,38.4,128.1,32.8,198c-1.5,16.6-2.6,34.1-3.4,50.7c-4.5,116.2,32.8,233.1,103.7,330.7v-2 c-70.1-97-107.1-213.2-102.6-328.4c0.7-16.6,1.9-33.8,3.4-50.7c5.6-69.9,11.6-142.4-32.8-198.6c-27.6-34.8-72.4-60.6-140.3-80.8 c-16.8-5-34-9.6-50.7-13.9c-36.9-9.6-75-19.5-109.7-35.1c-45.9-20.9-86.2-52.3-116.4-91.7c-7.1-9.3-13.8-18.9-19.8-28.8h-1.5 C410.4,10.3,417.2,19.9,424.3,29.5z"></path> </g> </g> <g> <defs> <rect id="SVGID_7_" x="253.6" y="90" width="687.6" height="451"></rect> </defs> <clipPath id="SVGID_8_"> <use xlink:href="#SVGID_7_" style="overflow:visible;"></use> </clipPath> <g class="st5"> <path class="st6" d="M833.3,104.8c-4.7,0-8.4-3.3-8.4-7.5c0-4.2,3.8-7.5,8.4-7.5c4.7,0,8.4,3.3,8.4,7.5 C841.8,101.4,837.8,104.8,833.3,104.8z M833.3,92.7c-2.8,0-5.2,2.1-5.2,4.6s2.3,4.6,5.2,4.6c2.8,0,5.2-2.1,5.2-4.6 S836.1,92.7,833.3,92.7z"></path> <path class="st6" d="M932.7,350.2c-4.7,0-8.4-3.3-8.4-7.5c0-4.2,3.8-7.5,8.4-7.5s8.4,3.3,8.4,7.5 C941.2,346.9,937.4,350.2,932.7,350.2z M932.7,338.2c-2.8,0-5.2,2.1-5.2,4.6c0,2.5,2.3,4.6,5.2,4.6c2.8,0,5.2-2.1,5.2-4.6 C938.1,340.3,935.8,338.2,932.7,338.2z"></path> <path class="st6" d="M624.6,541c-4.7,0-8.4-3.3-8.4-7.5c0-4.2,3.8-7.5,8.4-7.5c4.7,0,8.4,3.3,8.4,7.5 C632.8,537.7,629.1,541,624.6,541z M624.6,528.9c-2.8,0-5.2,2.1-5.2,4.6c0,2.5,2.3,4.6,5.2,4.6c2.8,0,5.2-2.1,5.2-4.6 C629.8,531,627.4,528.9,624.6,528.9z"></path> <path class="st6" d="M262.1,516c-4.7,0-8.4-3.3-8.4-7.5c0-4.2,3.8-7.5,8.4-7.5c4.7,0,8.4,3.3,8.4,7.5 C270.5,512.7,266.5,516,262.1,516z M262.1,504c-2.8,0-5.2,2.1-5.2,4.6s2.3,4.6,5.2,4.6s5.2-2.1,5.2-4.6S264.9,504,262.1,504z"></path> </g> </g> </svg>